# xmcd
#
# Track frame offsets:
#	150
#	28780
#	58505
#	85360
#	106317
#	123952
#	149455
#	172912
#	196665
#	219425
#
# Disc length: 3242 seconds
#
# Revision: 1
# Processed by: cddbd v1.4PL0 Copyright (c) Steve Scherf et al.
# Submitted via: audiograbber 1.81.02
#
DISCID=840ca80a
DTITLE=Van Morrison - Thw Healing Game
DYEAR=1900
DGENRE=Blues
TTITLE0=Rough God Goes Riding
TTITLE1=Fire In The Belly
TTITLE2=This Weight
TTITLE3=Piper at the Gates of Dawn
TTITLE4=Waiting Game
TTITLE5=Burning Ground
TTITLE6=It Once Was My Life
TTITLE7=Sometimes we cry
TTITLE8=If you love me
TTITLE9=The Healing Game
EXTD=
EXTT0=
EXTT1=
EXTT2=
EXTT3=
EXTT4=
EXTT5=
EXTT6=
EXTT7=
EXTT8=
EXTT9=
PLAYORDER=
